PathFileType  4	(X/Y/Z) C:\Users\antoi\Documents\MyRepositories\mobilecap\ResultsAnalysis
DataRate	CameraRate	NumFrames	NumMarkers	Units	OrigDataRate	OrigDataStartFrame	OrigNumFrames
100.0	100.0	6	51	mm	100.0	122	139
Frame#	Time	r_knee			r_shank_antsup			r_ankle			r_calc			r_5meta			r_toe			L_knee			L_shank_antsup			L_ankle			L_calc			L_5meta			L_toe			r_sh2			r_sh3			r_sh4			L_sh2			L_sh3			r_thigh1			r_thigh2			r_thigh3			r_thigh4			r_thigh5			L_thigh1			L_thigh2			L_thigh3			L_thigh4			r.ASIS			r.PSIS			L.ASIS			L.PSIS			C7			R_Shoulder			L_Shoulder			R_Sternum			L_Sternum			R_humerus			R_elbow_med			R_elbow_lat			R_forearm			R_wrist_radius			R_wrist_ulna			L_humerus			L_elbow_med			L_elbow_lat			L_forearm			L_wrist_radius			L_wrist_ulna			R_HJC			L_HJC			R_HJC_reg			L_HJC_reg			
		X1	Y1	Z1	X2	Y2	Z2	X3	Y3	Z3	X4	Y4	Z4	X5	Y5	Z5	X6	Y6	Z6	X7	Y7	Z7	X8	Y8	Z8	X9	Y9	Z9	X10	Y10	Z10	X11	Y11	Z11	X12	Y12	Z12	X13	Y13	Z13	X14	Y14	Z14	X15	Y15	Z15	X16	Y16	Z16	X17	Y17	Z17	X18	Y18	Z18	X19	Y19	Z19	X20	Y20	Z20	X21	Y21	Z21	X22	Y22	Z22	X23	Y23	Z23	X24	Y24	Z24	X25	Y25	Z25	X26	Y26	Z26	X27	Y27	Z27	X28	Y28	Z28	X29	Y29	Z29	X30	Y30	Z30	X31	Y31	Z31	X32	Y32	Z32	X33	Y33	Z33	X34	Y34	Z34	X35	Y35	Z35	X36	Y36	Z36	X37	Y37	Z37	X38	Y38	Z38	X39	Y39	Z39	X40	Y40	Z40	X41	Y41	Z41	X42	Y42	Z42	X43	Y43	Z43	X44	Y44	Z44	X45	Y45	Z45	X46	Y46	Z46	X47	Y47	Z47	X48	Y48	Z48	X49	Y49	Z49	X50	Y50	Z50	X51	Y51	Z51	

122	1.21000000	1399.88610	491.00431	-142.37620	1459.63513	407.40138	-158.28167	1449.85151	87.59401	-187.11892	1395.58032	54.11219	-241.94367	1571.94482	52.81500	-147.75359	1602.31023	88.32036	-200.63120	1139.67651	480.20355	-402.07290	1122.00817	383.30424	-387.43854	869.08715	156.49947	-366.15227	785.41681	161.70431	-313.71027	920.46136	41.45371	-391.90758	975.06327	48.41739	-336.81229	1475.94130	295.87294	-169.45014	1398.50612	392.91976	-115.34229	1408.45448	278.75785	-122.59691	1066.77497	442.18205	-425.54193	985.93942	351.32484	-426.66877	1351.63999	765.38590	-97.19028	1395.15463	666.02706	-121.52716	1357.40624	617.18196	-92.06017	1251.68796	715.72995	-78.50026	1302.47809	615.56967	-106.20718	1276.58127	707.05907	-418.43367	1260.20596	569.83801	-395.83146	1173.30009	714.47959	-453.19917	1154.10225	585.42189	-418.81535	1328.07792	942.98434	-138.69109	1121.49431	960.85774	-214.96759	1327.45200	932.51865	-394.81480	1124.59363	967.38466	-308.58002	1143.52058	1423.42519	-273.33833	1186.92317	1395.82710	-103.25191	1237.73744	1397.43336	-416.55933	1271.07214	1356.75332	-234.00703	1272.54974	1358.58163	-280.68017	1198.50842	1264.66982	-42.30455	1120.88447	1069.06343	-109.79911	1102.43841	1083.70671	-44.94271	1128.46369	1016.73182	-0.46499	1148.58683	843.35999	-1.73012	1103.12238	855.45710	18.25355	1292.45729	1270.59122	-469.72860	1275.82832	1059.76910	-430.71242	1303.10015	1078.94234	-506.30955	1376.43265	1058.43436	-499.52010	1507.96705	952.17647	-446.60119	1487.95882	932.40440	-488.30221	1249.70922	850.68389	-160.19354	1247.83024	846.79759	-349.69926	1260.18204	847.60695	-183.12565	1265.74588	859.39375	-351.79014	
123	1.22000000	1412.91667	491.78691	-141.52903	1470.86860	406.62095	-157.88793	1452.22613	87.30061	-186.97330	1396.59532	54.79311	-241.81803	1573.33279	50.08493	-147.83545	1604.55871	84.60853	-200.86402	1161.88954	478.29889	-403.48279	1142.11122	381.35752	-389.52500	880.77845	164.08224	-367.88313	798.17491	175.45550	-315.14889	923.34992	44.43161	-392.08722	978.37929	48.18854	-337.31519	1484.34356	294.72876	-169.31937	1410.05141	393.44754	-113.97917	1417.33280	279.09406	-121.21635	1088.26630	442.24604	-426.72333	1004.37424	354.44735	-427.92826	1365.55554	766.96403	-96.03432	1408.79099	667.51685	-120.48201	1371.17326	618.79531	-90.67650	1265.68220	717.61357	-76.66299	1316.10933	617.10650	-104.37330	1294.53754	707.53008	-417.63327	1280.77328	569.75301	-396.28288	1190.90827	713.25274	-452.08999	1174.32610	583.57222	-418.84475	1342.02983	944.59425	-136.87843	1135.46902	961.89089	-214.44658	1342.53117	932.89685	-392.49249	1139.32308	967.37911	-308.57964	1155.86862	1424.02776	-271.25705	1199.49535	1396.44820	-101.30167	1249.87532	1398.45579	-414.73062	1283.63423	1357.89031	-232.21385	1285.10953	1359.77316	-278.84230	1212.20170	1265.23061	-40.56787	1136.00598	1069.14745	-108.04110	1117.58333	1083.57726	-43.10748	1144.31755	1016.76233	1.23345	1165.71144	843.53520	-0.19863	1120.21165	855.31797	19.87386	1303.62301	1271.12424	-468.70567	1285.49111	1060.62049	-428.49270	1312.05634	1078.93287	-504.43152	1384.98738	1057.06305	-498.64323	1514.66066	947.63363	-447.53224	1493.89654	928.46778	-489.07780	1263.70512	852.10463	-158.29123	1263.07226	847.11298	-347.77833	1273.91431	849.79577	-180.71198	1280.79288	859.64203	-349.14883	
124	1.23000000	1425.23010	492.50107	-140.62364	1481.28366	405.84962	-157.51058	1454.01902	87.11843	-186.82343	1397.26139	55.21644	-241.70335	1574.28747	48.12364	-147.81144	1606.19884	81.78330	-201.01852	1185.42523	476.23130	-405.06805	1163.63257	379.18463	-391.76203	894.30011	172.14373	-369.73661	813.55053	190.18483	-316.79476	926.91303	48.44185	-392.26258	982.38997	48.57596	-338.05772	1491.98264	293.66729	-169.23893	1420.87452	393.93284	-112.58262	1425.50629	279.44017	-119.86013	1111.38986	442.13308	-428.05101	1024.58190	357.47782	-429.32533	1379.33308	768.67429	-94.89606	1422.13800	669.05598	-119.45638	1384.68224	620.51030	-89.15618	1279.56914	719.69700	-74.56144	1329.47038	618.78500	-102.27533	1312.82608	708.17854	-417.00333	1302.21631	569.83856	-397.03611	1208.83230	711.83563	-450.98348	1195.44017	581.49004	-419.07717	1355.75769	946.37674	-135.00854	1149.23719	963.07982	-213.96749	1357.29331	933.44868	-390.10656	1153.81675	967.46038	-308.54493	1168.16851	1424.80977	-269.07557	1212.16072	1397.33779	-99.34657	1261.89758	1399.64977	-412.86664	1296.20718	1359.22062	-230.44319	1297.61427	1361.12934	-277.02204	1226.01442	1266.11177	-38.79630	1151.19716	1069.55881	-106.23473	1132.85839	1083.73167	-41.19027	1160.42928	1017.08404	2.94824	1183.28171	844.04120	1.27272	1137.76701	855.45156	21.49565	1314.65295	1271.86452	-467.69347	1295.00668	1061.73761	-426.24393	1320.72063	1079.15366	-502.49736	1393.26017	1055.79141	-497.82130	1520.75217	942.91661	-448.67741	1499.18991	924.45191	-490.04815	1277.46541	853.69475	-156.35367	1278.07964	847.57310	-345.80709	1287.39834	852.22075	-178.18007	1295.53133	860.02988	-346.37174	
125	1.24000000	1436.54715	493.06511	-139.68078	1490.74520	405.05800	-157.19803	1455.31199	87.01774	-186.70354	1397.64363	55.47210	-241.60759	1574.91918	46.73604	-147.74751	1607.37044	79.64267	-201.15275	1210.08990	474.09616	-406.73029	1186.43859	376.90407	-393.92473	909.72604	180.56817	-371.75910	831.66490	205.58953	-318.65193	931.37779	53.56202	-392.45548	987.24194	49.72373	-339.06673	1498.83643	292.67341	-169.22882	1430.79466	394.31180	-111.27970	1432.87096	279.73831	-118.66603	1136.06850	441.88885	-429.46062	1046.48505	360.38607	-430.81248	1392.85558	770.34963	-93.70225	1434.96956	670.42879	-118.41317	1397.57762	622.13851	-87.57024	1293.14158	721.89461	-72.29785	1342.23685	620.51618	-100.05967	1331.30977	708.95216	-416.55605	1324.37451	570.12130	-398.03578	1226.97867	710.20678	-449.87274	1217.31741	579.21096	-419.49321	1369.25130	948.24991	-133.08067	1162.78226	964.38993	-213.51382	1371.68575	934.11046	-387.70389	1168.01012	967.62316	-308.43509	1180.42062	1425.73508	-266.81226	1224.93823	1398.43864	-97.40095	1273.76642	1400.96511	-411.00782	1308.78980	1360.70147	-228.71912	1310.05348	1362.60753	-275.24537	1239.96227	1267.25661	-37.01016	1166.41500	1070.24924	-104.36764	1148.24780	1084.12388	-39.17944	1176.76247	1017.65820	4.68755	1201.26029	844.83661	2.68051	1155.76952	855.81872	23.12884	1325.51779	1272.75100	-466.68673	1304.40938	1063.05308	-423.96096	1329.11330	1079.56797	-500.52033	1401.26967	1054.58979	-497.08396	1526.25737	938.04662	-450.03681	1503.85820	920.37347	-491.21132	1290.95217	855.39036	-154.39373	1292.77216	848.13496	-343.79952	1300.62759	854.77888	-175.53622	1309.87530	860.50867	-343.49328	
126	1.25000000	1446.70348	493.41968	-138.72508	1499.17125	404.20478	-156.91609	1456.20754	86.96638	-186.62707	1397.83334	55.63412	-241.52885	1575.33309	45.73140	-147.68063	1608.20848	77.99290	-201.28898	1235.64641	472.04402	-408.36438	1210.38144	374.70677	-395.80217	927.06181	189.20558	-373.96207	852.43585	221.22117	-320.70219	937.11704	59.77568	-392.73071	993.18687	51.72979	-340.32852	1504.90088	291.71046	-169.22514	1439.64791	394.53601	-110.14864	1439.31989	279.94034	-117.70550	1162.12485	441.60880	-430.86318	1069.92251	363.18326	-432.32622	1405.99776	771.82544	-92.40963	1447.10268	671.45292	-117.33269	1409.57950	623.51745	-85.99936	1306.21712	724.09118	-70.00689	1354.14869	622.19942	-97.88437	1349.86455	709.82665	-416.28139	1347.05573	570.64835	-399.17986	1245.25393	708.37791	-448.76338	1239.79907	576.81639	-420.04592	1382.51408	950.13204	-131.12334	1176.09978	965.79272	-213.07327	1385.67978	934.83689	-385.35022	1181.85672	967.85798	-308.23015	1192.63944	1426.76708	-264.51152	1237.84697	1399.69320	-95.47906	1285.46343	1402.35804	-409.19351	1321.38492	1362.28750	-227.06570	1322.43014	1364.16424	-273.53979	1254.06604	1268.59997	-35.23487	1181.62265	1071.16067	-102.42850	1163.73467	1084.70454	-37.06972	1193.28510	1018.43855	6.45809	1219.61147	845.87465	4.03093	1174.19852	856.37663	24.78706	1336.19523	1273.72351	-465.69216	1313.72009	1064.49922	-421.66584	1337.27546	1080.13930	-498.52282	1409.03292	1053.42923	-496.45562	1531.21096	933.04471	-451.60299	1507.92531	916.24817	-492.56222	1304.15132	857.12739	-152.44775	1307.09155	848.76578	-341.79530	1313.60368	857.39646	-172.80692	1323.75746	861.03653	-340.56266	
127	1.26000000	1455.65712	493.53529	-137.77999	1506.54061	403.25441	-156.56694	1456.80422	86.94090	-186.59540	1397.92217	55.74965	-241.46678	1575.61289	44.96773	-147.62350	1608.82575	76.68233	-201.42893	1261.83795	470.26209	-409.87551	1235.28757	372.81387	-397.23591	946.23894	197.87315	-376.29853	875.52717	236.51232	-322.90855	944.67522	66.95078	-393.19999	1000.62324	54.62963	-341.79078	1510.18062	290.73403	-169.12103	1447.31080	394.57903	-109.21433	1444.76187	280.01358	-116.99329	1189.29725	441.42683	-432.16131	1094.66985	365.91461	-433.80203	1418.64633	772.97750	-91.01419	1458.43641	672.02518	-116.21664	1420.54517	624.54536	-84.51816	1318.67146	726.16662	-67.83837	1365.06569	623.74453	-95.89173	1368.39043	710.82178	-416.14352	1370.04662	571.48382	-400.33738	1263.57826	706.40953	-447.68019	1262.69588	574.43670	-420.66711	1395.55677	951.94274	-129.19534	1189.18964	967.26569	-212.63385	1399.26164	935.60625	-383.12774	1195.33057	968.15252	-307.92785	1204.84249	1427.87007	-262.23017	1250.90406	1401.05009	-93.59372	1296.98971	1403.79302	-407.45802	1333.99703	1363.93269	-225.50504	1334.75694	1365.75760	-271.93148	1268.35164	1270.07514	-33.49976	1196.79175	1072.22788	-100.40692	1179.30430	1085.42588	-34.86080	1209.97502	1019.37707	8.26585	1238.31590	847.11448	5.34088	1193.03356	857.08409	26.48550	1346.67687	1274.72821	-464.72792	1322.95048	1066.01135	-419.39984	1345.26178	1080.83111	-496.53641	1416.56345	1052.28526	-495.95281	1535.66054	927.93286	-453.36214	1511.41855	912.09489	-494.09245	1317.06886	858.84212	-150.57497	1320.99688	849.44647	-339.85921	1326.32322	860.03014	-170.04805	1337.13253	861.58271	-337.64957	
